<?xml version="1.0" standalone="no"?>
<!DOCTYPE svg PUBLIC "-//W3C//DTD SVG 1.1//EN" "http://www.w3.org/Graphics/SVG/1.1/DTD/svg11.dtd">
<svg x="0px" y="0px" width="50px" height="50px" viewBox="0 0 120.3 120.3" data-reactid=".0.0" version="1.1" xmlns="http://www.w3.org/2000/svg" xmlns:xlink="http://www.w3.org/1999/xlink">
<defs xmlns="http://www.w3.org/1999/xhtml">
</defs>
<rect width="120.3" height="120.3" fill="#01786E" />
<path d="M79.5,49.1c0-12.6-9.5-17.3-23.2-17.3l-15.5,0v56.7h9.6V40.4h4.8c1.1,0,2.2,0,3.1,0.1 c7.9,0.2,11.8,2.6,11.8,8.7c0,0.2,0,0.4,0,0.7c0,5.7-3.1,9.4-11.7,9.4c-0.8,0-2.1-0.2-2.1-0.2v7.8c0,0,1.2,0,2.1,0 c12.3,0,21-4.8,21-17C79.5,49.6,79.5,49.4,79.5,49.1z" fill="#ffffff" />
</svg>
